<?xml version="1.0" standalone="no"?>
<!DOCTYPE svg PUBLIC "-//W3C//DTD SVG 20010904//EN"
 "http://www.w3.org/TR/2001/REC-SVG-20010904/DTD/svg10.dtd">
<svg version="1.0" xmlns="http://www.w3.org/2000/svg"
 width="512.000000pt" height="512.000000pt" viewBox="0 0 512.000000 512.000000"
 preserveAspectRatio="xMidYMid meet">

<g transform="translate(0.000000,512.000000) scale(0.100000,-0.100000)"
fill="#000000" stroke="none">
<path d="M2520 5114 c-393 -44 -656 -120 -940 -271 -459 -243 -821 -618 -1050
-1088 -68 -138 -148 -350 -137 -361 5 -6 264 -84 276 -84 3 0 22 46 41 103 19
56 64 161 100 233 429 857 1363 1315 2308 1133 130 -25 340 -93 457 -148 l85
-40 65 129 c36 72 65 133 65 137 0 5 -40 26 -88 47 -195 88 -438 160 -652 191
-99 15 -455 28 -530 19z"/>
<path d="M4196 4778 c-137 -18 -268 -116 -329 -245 -30 -64 -32 -74 -32 -183
0 -109 2 -119 32 -183 82 -173 274 -276 459 -247 95 15 169 54 240 124 169
169 175 423 14 599 -97 106 -236 155 -384 135z"/>
<path id="center" d="M2495 3954 c-476 -86 -850 -410 -998 -864 -78 -239 -76 -543 4 -784
126 -379 426 -678 807 -806 302 -101 671 -76 955 66 438 219 707 653 707 1140
0 618 -445 1143 -1059 1248 -115 20 -306 20 -416 0z"/>
<path d="M4670 3840 c-63 -38 -119 -71 -124 -72 -4 -2 16 -53 47 -113 342
-683 294 -1490 -126 -2120 -255 -381 -646 -687 -1059 -827 -54 -18 -98 -37
-98 -43 1 -15 78 -266 84 -272 11 -11 226 71 361 137 265 129 440 254 655 470
392 391 612 838 692 1405 19 136 16 494 -5 635 -23 147 -68 332 -113 463 -39
111 -178 407 -191 406 -4 0 -60 -32 -123 -69z"/>
<path d="M335 3126 c-194 -48 -334 -224 -335 -421 -1 -164 96 -317 247 -392
67 -33 86 -38 167 -41 74 -3 103 0 155 18 272 91 385 410 231 648 -100 156
-288 232 -465 188z"/>
<path d="M528 2057 c-83 -25 -138 -46 -138 -53 0 -7 15 -55 34 -106 219 -600
637 -1074 1196 -1354 109 -55 319 -140 368 -150 l28 -6 38 134 c21 73 39 137
40 141 0 5 -42 24 -94 43 -448 161 -846 481 -1092 877 -66 105 -169 319 -204
422 -15 44 -30 83 -33 86 -3 3 -68 -12 -143 -34z"/>
<path d="M2596 859 c-113 -27 -233 -129 -289 -246 -30 -64 -32 -75 -32 -179 0
-107 1 -112 37 -185 91 -184 294 -283 487 -238 219 50 370 273 333 491 -30
171 -140 298 -303 349 -65 20 -166 24 -233 8z"/>
</g>
</svg>
